<svg viewBox="0 0 64 64" xmlns="http://www.w3.org/2000/svg"><path d="M18.713 34.037c-3.627-.44-5.858-1.244-6.247-1.14-.412.113-.41.84-.074 1.267.336.428.34.338 3.56.8s7.977.876 8.114.84c.137-.038.098-.902.068-1.176-.028-.274-1.794-.15-5.42-.59zM30.8 6.85c.76.09 1.747-.578 1.802-2.298.055-1.72-2.027-4.7-2.486-4.546-.46.154-.39 1.293-.45 2.332-.06 1.04-1.21 1.38-1.427 2.82-.22 1.438 1.964 1.622 2.56 1.692zm-.574-2.528c.584-.737.346-1.295.61-1.19.264.107.756.953.545 1.485-.21.532-.49 1.468-1.685 1.08-.335-.11-.053-.64.53-1.375zm25.75 26.372c-.17-2.505-2.078-4.613-8.066-6.326-5.988-1.713-13.5-1.248-13.5-1.248s.032-12.972.04-13.107c.007-.136-2.594-.38-2.777-.345-.182.035.206-1.984.08-2.173-.123-.19-1.033-.06-1.212-.07-.18-.012.018 2.04-.085 2.262-.103.22-1.554.362-1.922.477-.367.114.198 13.666.198 13.666-4.802-.373-16.706.378-19.266 2.54-2.56 2.164-2.544 4.977-2.423 11.426.122 6.45.307 11.812.42 12.953.115 1.14 1.125 1.607 1.29 1.89.163.28-.105 4.892-.01 5.578.095.686 6.748 5.704 21.94 5.78 15.192.078 21.064-3.977 21.424-4.727.36-.75-.078-3.315.364-3.153.44.162 2.63-1.796 2.788-2.966.158-1.17.89-19.95.72-22.456zM29.648 11.137s3.264-.307 3.517-.02c.254.287.136 17.064.112 17.47-.025.408-.955 1.67-1.594 1.812-.64.143-1.853.07-1.72-.647.13-.717-.465-18.398-.317-18.616zM10.787 57.885c.053-.133 2.042-4.1 2.042-4.1l2.032-.832-2.66 6.194-1.414-1.262zm-.415-.615l.213-3.662c.225.013 1.248.255 1.248.255l-1.46 3.407zm3.033 2.13c.027-.462 6.053-15.703 6.053-15.703s1.014.377.772 2.223-.965 5.75-.965 5.75-4.552 8.486-4.684 8.433c-.133-.053-1.19-.478-1.177-.704zM17.1 45.51c.186-.897 1.067-1.3 1.25-1.334.364-.07-1.377 3.503-1.377 3.503s-.06-1.275.126-2.17zm-1.896 14.766c.013-.226 3.82-6.76 4.016-7.022l.572 1.803-2.628 5.652s-1.973-.208-1.96-.434zm4.817.92c-.18-.012-1.746-.195-1.736-.375.01-.18 2.052-4.278 2.158-4.544 0 0 1.54.635 1.53.816-.01.18-1.772 4.113-1.95 4.103zm2.41.458c-.226-.013-1.56-.32-1.56-.32s1.87-4.244 2.05-4.233l1.434.13s-1.7 4.437-1.925 4.424zm.64-.144c-.095-.133 2.813-4.96 2.813-4.96s1.377-.418 1.886-2.974l.508-2.556s3.822-7.577 3.957-7.57c.135.008.448 2.385.308 3.24-.14.853-7.767 14.92-8.002 15.087-.234.17-1.305-.03-1.47-.267zm4.928-17.31c1.14-1.793 3.092-1.995 3.26-1.804.17.19-3.092 6.668-3.243 6.93 0 0-1.158-3.334-.017-5.126zM25.78 62.168c.02-.316 5.026-9.64 5.41-10.024.2-.203-.164 1.26.023 1.907.188.647.278.652.172.918-.106.266-3.976 7.115-4.21 7.237s-1.412.28-1.394-.037zm2.35-.043c-.298-.14 3.618-6.41 3.973-6.298.354.112 1.636.55 1.636.55s-2.386 5.348-2.764 5.644c-.378.296-2.19.416-2.847.105zm7.01-.36c-.276.076-2.547.35-3.028.095 0 0 2.713-5.556 2.983-5.54.27.016 1.663.098 2.47-1.352s1.248-2.875 1.248-2.875 3-5.085 3.136-5.077c.134.008.256 1.784.15 2.05-.106.266-6.686 12.626-6.96 12.7zm3.94-15.054c.536-.693 1.803-.755 1.927-.566.124.19-2.228 4.302-2.264 4.04-.095-.686-.2-2.78.337-3.473zm-.45 14.717c-.462.2-2.106.556-1.992.155.114-.402 4.303-8.093 4.45-8.266.147-.176.444 1.66.745 1.904.3.244-2.74 6.008-3.202 6.207zm3.144-.54c-.608.372-1.935.702-1.964.428-.03-.274 2.827-5.186 3.197-5.346.124-.055 1.623.004 1.47.312-.154.31-2.095 4.232-2.703 4.604zm1.284-.38c-.09-.155 2.095-4.23 2.325-4.308.23-.078 1.184-.203 1.77-1.757.587-1.553.726-4.72 1.072-5.244.346-.525 1.906-.978 1.182 1.384s-4.036 9.697-4.32 9.907c-.28.212-1.783.44-2.03.018zm6.57-2.062c-.244.303-1.93 1.383-3.28 1.35-.528-.014 2.643-5.153 2.815-5.007.172.146.69.54.722.768.03.23-.015 2.586-.258 2.89zm3.673-6.588c-.506 1.74-.855 2.308-1.124 2.293-.27-.016-1.322-.53-1.222-1.478.1-.947.414-2.47.432-3.558.018-1.088.095-1.627-.56-1.984-.657-.356-3.916-.14-4.473.916s-.508 4.87-.633 5.452c-.124.582-1.652 1.264-2.165.01-.513-1.256 1.02-5.93.534-7.636-.488-1.707-2.907-1.985-4.834-1.418-1.927.567-2.52 1.485-2.502 3.482.02 1.997.203 5.047-.61 5.86-.815.815-3.06 1.41-2.645-1.833.413-3.242 2.017-6.005.932-9.063s-4.794-2.868-6.115-1.857c-1.32 1.01-3.274 2.8-2.737 5.963s2.01 8.102-2.154 8.356c-4.163.254-1.26-8.557-1.28-9.783-.02-1.227.075-3.626-2.71-3.79-2.787-.163-4.518 2.457-4.74 4.712-.22 2.255-.444 5.327-3.005 5.176-2.56-.15-2.043-2.842-1.828-6.55.216-3.706-1.247-11.912-.893-13.342.353-1.43.62-4.5 6.045-5.496 5.424-.996 14.047-1.17 14.047-1.17s-.307 5.29-.1 5.62c.205.33 2.915 1.032 4.24-.024 1.323-1.056 1.365-1.008 1.397-1.55.03-.543.204-4.298.204-4.298.315.018 6.862-.14 10.765.996 3.9 1.137 7.653 3.308 7.82 5.087.166 1.78.418 19.168-.09 20.907z"/></svg>