<svg viewBox="0 0 64 64" xmlns="http://www.w3.org/2000/svg"><path d="M56.14 7.488c-.73-3.433-8.494-3.32-8.663-3.32-.17 0 0-1.915-.056-2.59C47.366.903 43.99.62 43.427.79c-.563.17-.28 2.983-.338 3.208-.056.225-3.488-.394-3.488-.394s0-3.04-.113-3.377c-.112-.338-4.163-.113-4.5 0-.34.113.055 2.645.055 2.983 0 .338-3.15.113-3.713 0-.564-.113-.057-2.533-.45-2.983-.395-.45-3.602-.113-4.108 0-.506.113-.28 2.927-.28 3.377 0 .45-2.14.113-2.477.113-.338 0-.394-2.645-.394-3.32 0-.676-4.05-.226-4.387-.17-.338.056-.17 3.152-.17 3.152s-2.587-.114-2.98-.17c-.395-.056 0-1.914-.282-2.308-.28-.394-3.712-.17-4.387-.113-.675.055-.112 3.32-.112 3.32s-1.237 0-2.587.056-2.746.985-2.87 1.238C4.494 8.162 5.17 50.937 5.17 53.02c0 2.08 1.293 3.545 1.574 3.883s.506 1.407.788 3.208 4.67 3.434 6.526 3.434c1.857 0 33.532.732 37.47.338 3.938-.394 6.414-2.758 6.47-4.277.056-1.52-1.125-48.684-1.857-52.117zm-11.546-5.01c.275-.274 1.224-.126 1.392.128.17.253-.17 6.08-.17 6.08s-1.434.42-1.518 0c-.084-.424.127-6.038.296-6.207zm-8.017-.548c.086-.15 1.35 0 1.35 0s.084 5.488-.127 5.53c-.21.042-1.055.042-1.14-.127-.083-.17-.252-5.107-.083-5.403zm-8.44-.338c.036-.25 1.52 0 1.52 0s.04 5.234-.128 5.234c-.17 0-1.562-.084-1.562-.084s.127-4.854.17-5.15zm-7.764.338s1.603-.17 1.73.042c.127.21.422 4.812.127 5.023-.295.21-1.603.084-1.603.084s-.422-4.98-.254-5.15zm-7.468.59c.06-.245 1.35-.294 1.435-.04.084.252.253 4.77.084 4.853-.17.084-1.18.17-1.224.042-.042-.126-.337-4.685-.295-4.854zm36.71 55.257c-.295.127-1.772.17-2.025.084-.253-.083-1.35-2.32-1.52-2.32-.168 0-.8.42-.716.59.084.17 1.477 1.73 1.224 1.857-.253.127-4.304.084-4.473-.084-.17-.17 1.857-1.224 2.827-2.153.97-.93 1.52-1.52 1.688-1.69.414-.413 3.29 3.59 2.995 3.717zm-5.907-5.32c.17-1.14.295-2.532.506-2.7.1-.08 1.688 0 2.405-.085.716-.084 1.39-.127 1.39-.127s-.59 1.182-2.49 3.293c-1.898 2.11-2.15 2.322-2.362 2.28-.21-.043.38-1.52.55-2.66zm7.257 4.855c-.295-.042-3.46-4.18-3.46-4.18s.422-.8.675-.885c.12-.04 3.038 2.87 3.165 3.293.127.422-.084 1.815-.38 1.772zm.676-3.334c-.252-.042-2.826-2.575-2.826-2.575s.802-1.098 1.055-1.14c.52-.087 1.94 1.73 1.94 2.026s.084 1.73-.17 1.688zm.085-3.926c-.127-.042-1.224-.886-1.224-1.14s.887-1.52 1.182-1.773c0 0 .127.126.21.632s-.04 2.322-.167 2.28zm.17-13.128c-.296-.127-5.444-7.387-5.613-7.387-.17 0-.506 1.182-.17 1.393.34.21 5.486 6.923 5.486 7.218 0 .296-.17 2.026-.17 2.026s-4.978-6.29-5.274-6.332c-.295-.042-.59.59-.338 1.013.253.422 5.232 6.416 5.274 6.712.042.295-.17 2.49-.422 2.448-.253-.042-4.135-5.32-4.43-5.36-.296-.043-.845 1.012-.465 1.434.38.42 4.388 4.685 4.388 5.022 0 .338-.59 1.52-.76 1.31-.168-.212-2.49-3.547-2.868-3.505-.38.042-.886.464-.55.844.34.38 2.913 3.42 2.786 3.59-.127.168-1.857.76-3.67.8-1.815.043-2.322 0-2.575.55-.253.55.17 3.04-.844 5.572-1.014 2.533-2.322 3.63-3.63 3.715-1.308.084-24.01.042-26.457-.802-2.447-.844-3.63-3.124-3.713-5.7-.08-2.573.172-44.067.3-44.785.067-.383 3.417-.422 3.417-.127s-.084 2.364.506 2.533c.59.17 3.84.295 3.84-.042 0-.338-.127-3.757.253-4.052.38-.295 2.912-.17 2.912.042s-.17 2.786 0 3.124c.17.338 4.81.59 4.768.21-.042-.38.127-2.954.127-2.954s2.49-.295 2.532.084c.042.38-.38 2.702.084 2.828.463.127 4.598.55 4.64.042.043-.507-.252-3.124.085-3.208.338-.084 3.713.084 3.713.21 0 .128-.21 2.745.127 2.998.338.253 4.01.76 4.177.253.17-.506-.17-3.08.084-3.08.253 0 3.376-.128 3.376.126 0 .253-.17 4.474.042 4.517.21.042 4.515.127 4.684-.042.17-.168.127-4.01.253-4.01.128 0 2.195-.083 2.448 1.14.253 1.225.844 7.008.802 8.95-.042 1.942-.127 2.406-.127 2.406s-2.28-2.702-2.49-2.617c-.21.083-.59 1.012-.506 1.18.084.17 2.91 3.505 3.08 3.758.17.253.506 3.757.38 3.715-.127-.042-4.346-5.32-4.346-5.32s-.843 1.394-.59 1.52c.253.128 4.937 5.7 4.937 5.953s.127 4.137.127 4.137-5.02-6.205-5.19-6.163c-.17.042-.506 1.098-.338 1.31.17.21 5.823 7.048 5.823 7.175 0 .125.38 3.756.084 3.63zm-41.65-25.116c-.168.253-.21 6.67-.21 6.67s1.52.084 1.73 0c.21-.084.084-6.712.084-6.712s-1.487-.134-1.604.042zm8.778 16.885c.338.464 4.05 4.052 4.388 4.137.34.084 3.25-3.715 3.46-3.715s-.04 19.544.254 19.755 7.722.21 7.933 0c.21-.21.253-31.786.253-31.786s-6.076-1.266-6.583-1.266S18.81 28.4 19.023 28.693zM29.7 17.675c.76 0 4.008.59 4.176.97.17.38-.042 28.325-.253 28.41-.21.084-4.895.042-4.895-.084s.042-20.978-.084-21.105c-.127-.127-1.477-.338-1.603-.17-.126.17-3.29 4.813-3.712 4.687-.422-.127-1.983-1.815-2.11-2.153-.048-.127 7.72-10.555 8.48-10.555z"/></svg>