<svg viewBox="0 0 23.33 19.56" xmlns="http://www.w3.org/2000/svg"><g data-name="Camada 2" id="Camada_2"><g data-name="Camada 1" id="Camada_1-2"><path d="M18.2 12.81a5.77 5.77 0 00-1.2-.37 6.47 6.47 0 01-.82-.25 1.07 1.07 0 01-.42-.27.55.55 0 01-.13-.38.57.57 0 01.26-.51 1.29 1.29 0 01.72-.18 1.27 1.27 0 01.7.18.68.68 0 01.33.45.24.24 0 00.24.15h.79a.17.17 0 00.18-.18 1.33 1.33 0 00-.22-.63 1.86 1.86 0 00-.59-.57 2.3 2.3 0 00-.93-.32v-.59a.19.19 0 00-.2-.2h-.52a.2.2 0 00-.14.05.19.19 0 00-.06.15v.58a2.19 2.19 0 00-1.29.55 1.46 1.46 0 00-.47 1.1 1.35 1.35 0 00.46 1.1 3.54 3.54 0 001.44.62q.59.16.9.27a1.25 1.25 0 01.46.26.51.51 0 01.15.38.61.61 0 01-.3.54 1.58 1.58 0 01-.87.2 1.49 1.49 0 01-.81-.19.89.89 0 01-.39-.48.39.39 0 00-.1-.12.27.27 0 00-.15 0h-.75a.18.18 0 00-.13.05.17.17 0 00-.05.12 1.41 1.41 0 00.24.72 1.75 1.75 0 00.65.57 2.68 2.68 0 001 .29v.58a.19.19 0 00.06.15.2.2 0 00.14.05h.52a.19.19 0 00.2-.2v-.58a2.48 2.48 0 001.41-.54 1.48 1.48 0 00.52-1.18 1.45 1.45 0 00-.21-.81 1.54 1.54 0 00-.62-.56z"/><path d="M16.67 6.24h-2.55V3.67a.5.5 0 00-.5-.5H13V.5a.5.5 0 00-.5-.5H.5a.5.5 0 00-.5.5v3.07a.5.5 0 00.5.5h.66v2.67a.5.5 0 00.5.5h.5v2.08H.66a.5.5 0 00-.5.5V19a.5.5 0 00.5.5h12a.5.5 0 00.5-.5v-.51a6.66 6.66 0 103.51-12.25zM1 1h11v2.07H1zm1.16 3.17h11v2.07h-11zm1 3.07h10a6.7 6.7 0 00-2.1 2.07h-7.9zm7 8.22h-9v-2.07H10a6.61 6.61 0 00.49 2.07zm-9-5.15h9.37a6.61 6.61 0 00-.5 2.07H1.16zm11 8.22h-11v-2.07h9.89a6.67 6.67 0 001.07 1.29zm4.55 0a5.64 5.64 0 01-4.89-8.46.49.49 0 00.05-.09 5.64 5.64 0 114.84 8.55z"/></g></g></svg>